<svg width="1096" height="835" viewBox="0 0 1096 835" fill="none" xmlns="http://www.w3.org/2000/svg">
<g id="htmltags" clip-path="url(#clip0)" filter="url(#filter0_d)">
<path id="back" d="M836.793 256.948C758.638 79.3603 573.295 -27.2923 381.101 -0.700455C279.494 13.3579 178.678 64.6797 120.807 194.998C17.3569 427.957 188.6 548.383 302.608 600.154C357.699 625.233 409.019 657.882 455.08 697.154C538.04 767.743 688.287 847.581 820.184 661.117C915.782 525.968 888.851 375.239 836.793 256.948Z" fill="#BFBFBF"/>
<g id="floor">
<path id="Vector" d="M1078.04 634.889C1081.14 653.401 851.631 757.706 555.295 807.217C258.96 856.729 8.01189 832.698 4.91892 814.186C1.82596 795.675 247.76 789.691 544.095 740.18C840.43 690.668 1074.95 616.377 1078.04 634.889Z" fill="#3F3D56"/>
<path id="Vector_2" d="M549.932 744.5C846.268 694.988 1084.5 642.928 1082.05 628.22C1079.59 613.512 837.369 641.726 541.033 691.238C244.698 740.75 6.4632 792.81 8.92058 807.518C11.378 822.225 253.597 794.011 549.932 744.5Z" fill="#3F3D56"/>
</g>
<g id="tags">
<path id="Vector_3" opacity="0.1" d="M677.878 444.71L758.766 331.736L645.545 251.193L670.207 216.758L817.946 321.848L712.395 469.258L677.878 444.71Z" fill="black"/>
<path id="Vector_4" opacity="0.1" d="M347.096 498.963L233.776 418.437L314.664 305.462L280.147 280.915L174.695 428.308L322.433 533.398L347.096 498.963Z" fill="black"/>
<path id="Vector_5" d="M674.747 425.97L755.635 312.995L642.414 232.452L667.076 198.017L814.814 303.108L709.264 450.517L674.747 425.97Z" fill="#FFB31A"/>
</g>
<g id="girl">
<path id="Vector_6" d="M801.292 297.822C801.292 297.822 767.072 279.84 766.179 288.677C765.286 297.513 793.082 312.614 793.082 312.614L801.292 297.822Z" fill="#FFB9B9"/>
<path id="Vector_7" opacity="0.1" d="M801.292 297.822C801.292 297.822 767.072 279.84 766.179 288.677C765.286 297.513 793.082 312.614 793.082 312.614L801.292 297.822Z" fill="black"/>
<path id="Vector_8" d="M889.345 208.074C889.345 208.074 864.017 278.648 864.789 287.997C865.561 297.345 865.689 298.113 862.487 297.859C859.286 297.604 816.257 300.054 812.672 302.233C809.087 304.411 799.606 294.938 799.606 294.938C799.606 294.938 787.447 311.976 791.034 314.536C794.621 317.096 804.097 317.092 806.276 320.677C808.455 324.262 811.402 327.718 818.188 325.795C824.975 323.871 874.026 329.102 879.787 325.77C885.549 322.438 886.444 318.339 889.517 317.826C892.591 317.312 898.224 313.212 898.095 312.444C897.967 311.675 912.677 267.359 912.677 267.359C912.677 267.359 928.789 207.802 889.345 208.074Z" fill="#D0CDE1"/>
<path id="Vector_9" opacity="0.1" d="M889.345 208.074C889.345 208.074 864.017 278.648 864.789 287.997C865.561 297.345 865.689 298.113 862.487 297.859C859.286 297.604 816.257 300.054 812.672 302.233C809.087 304.411 799.606 294.938 799.606 294.938C799.606 294.938 787.447 311.976 791.034 314.536C794.621 317.096 804.097 317.092 806.276 320.677C808.455 324.262 811.402 327.718 818.188 325.795C824.975 323.871 874.026 329.102 879.787 325.77C885.549 322.438 886.444 318.339 889.517 317.826C892.591 317.312 898.224 313.212 898.095 312.444C897.967 311.675 912.677 267.359 912.677 267.359C912.677 267.359 928.789 207.802 889.345 208.074Z" fill="black"/>
<path id="Vector_10" d="M829.843 174.28C830.198 178.414 830.95 182.506 832.087 186.497C834.729 195.129 840.33 203.652 837.868 212.533C836.975 215.757 835.049 218.757 834.27 221.999C832.619 228.861 836.273 235.556 837.043 242.437C838.037 251.327 833.852 260.751 826.135 267.003C840.773 265.023 853.418 255.509 860.941 244.167C868.465 232.826 871.534 219.804 873.325 206.99C874.336 200.944 874.604 194.797 874.125 188.686C873.852 185.175 872.863 181.757 871.221 178.641C869.337 175.645 867.059 172.914 864.449 170.523C861.615 167.681 858.709 164.786 854.923 162.951C850.259 160.692 841.724 159.067 836.265 160.421C829.569 162.082 829.342 169.523 829.843 174.28Z" fill="#2F2E41"/>
<path id="Vector_11" d="M856.299 194.641C856.299 194.641 869.757 223.194 864.254 232.801C858.751 242.408 905.103 222.027 905.103 222.027C905.103 222.027 877.305 202.188 886.262 184.896L856.299 194.641Z" fill="#FFB9B9"/>
<path id="Vector_12" d="M895.393 598.798L899.116 621.081L912.951 632.984L922.17 626.705L913.705 594.949L895.393 598.798Z" fill="#FFB9B9"/>
<path id="Vector_13" d="M903.469 618.773C903.469 618.773 898.599 608.53 894.504 617.112C890.409 625.694 887.855 643.496 884.91 644.778C881.965 646.06 864.431 673.473 885.945 669.878C907.458 666.284 912.704 655.14 912.704 655.14C912.704 655.14 932.806 643.094 932.549 641.557C932.292 640.02 924.469 612.105 922.932 612.362C921.396 612.619 921.526 618.125 917.684 618.767C913.843 619.409 903.469 618.773 903.469 618.773Z" fill="#2F2E41"/>
<path id="Vector_14" d="M947.514 594.039L950.212 614.913L969.935 619.514L964.928 589.55L947.514 594.039Z" fill="#FFB9B9"/>
<path id="Vector_15" d="M970.957 611.446C970.957 611.446 959.171 602.358 954.178 605.562C951.696 607.077 949.341 608.792 947.136 610.687C947.136 610.687 945.732 621.189 945.607 629.898C945.483 638.606 945.356 642.576 944.333 645.906C943.31 649.237 943.699 661.018 959.322 659.988C974.946 658.957 978.144 649.735 978.144 649.735L978.648 629.116C978.648 629.116 974.03 610.933 970.957 611.446Z" fill="#2F2E41"/>
<path id="Vector_16" d="M869.052 379.69C869.052 379.69 855.114 433.354 865.762 478.173C865.762 478.173 861.031 497.128 870.262 524.018C879.494 550.908 894.883 605.202 894.883 605.202C894.883 605.202 916.014 604.041 916.908 599.942C916.908 599.942 912.026 561.269 913.306 559.475C914.586 557.682 906.376 522.723 902.916 516.193C899.455 509.663 911.849 437.302 911.849 437.302L891.452 353.043L869.052 379.69Z" fill="#2F2E41"/>
<path id="Vector_17" opacity="0.1" d="M869.052 379.69C869.052 379.69 855.114 433.354 865.762 478.173C865.762 478.173 861.031 497.128 870.262 524.018C879.494 550.908 894.883 605.202 894.883 605.202C894.883 605.202 916.014 604.041 916.908 599.942C916.908 599.942 912.026 561.269 913.306 559.475C914.586 557.682 906.376 522.723 902.916 516.193C899.455 509.663 911.849 437.302 911.849 437.302L891.452 353.043L869.052 379.69Z" fill="black"/>
<path id="Vector_18" d="M862.391 377.643L882.253 406.706C882.253 406.706 901.107 477.006 906.489 485.584C906.489 485.584 912.391 511.451 920.718 518.747C929.045 526.044 946.876 599.674 946.876 599.674C946.876 599.674 966.983 601.843 967.621 596.208C968.259 590.573 966.707 552.922 966.707 552.922C966.707 552.922 962.98 521.164 951.062 501.831C939.145 482.498 945.132 404.888 945.132 404.888C945.132 404.888 958.307 365.566 925.769 340.991L862.391 377.643Z" fill="#2F2E41"/>
<path id="Vector_19" d="M874.743 201.036C892.141 198.13 903.888 181.669 900.981 164.271C898.074 146.873 881.614 135.126 864.216 138.033C846.818 140.939 835.071 157.4 837.977 174.798C840.884 192.196 857.345 203.943 874.743 201.036Z" fill="#FFB9B9"/>
<path id="Vector_20" d="M906.636 212.293C906.636 212.293 873.597 217.813 869.629 222.425C868.67 223.7 867.258 224.558 865.685 224.821C864.112 225.084 862.498 224.732 861.177 223.837C861.177 223.837 849.78 226.531 848.247 236.265C846.715 245.999 839.549 259.832 839.549 259.832C839.549 259.832 827.387 272.132 839.435 296.971C851.483 321.811 852.397 365.097 852.397 365.097C852.397 365.097 847.791 375.344 854.58 378.158C861.368 380.973 863.93 382.125 863.675 385.326C863.42 388.528 929.358 348.289 928.459 342.911C927.56 337.533 925.254 333.179 926.405 330.617C927.557 328.056 928.451 323.957 926.273 320.372C924.094 316.787 927.039 315.506 925.629 311.792C924.219 308.079 924.079 278.88 925.099 266.073C926.118 253.266 918.289 211.136 906.636 212.293Z" fill="#D0CDE1"/>
<path id="Vector_21" d="M802.832 307.043C802.832 307.043 768.612 289.06 767.719 297.897C766.826 306.734 794.623 321.834 794.623 321.834L802.832 307.043Z" fill="#FFB9B9"/>
<path id="Vector_22" d="M891.142 218.831C891.142 218.831 865.814 289.405 866.586 298.753C867.358 308.102 867.486 308.87 864.285 308.615C861.083 308.36 818.054 310.811 814.469 312.99C810.884 315.168 801.403 305.695 801.403 305.695C801.403 305.695 789.244 322.733 792.831 325.293C796.418 327.852 805.895 327.849 808.073 331.434C810.252 335.018 813.199 338.475 819.985 336.551C826.772 334.628 875.823 339.859 881.585 336.527C887.346 333.195 888.241 329.096 891.314 328.583C894.388 328.069 900.021 323.969 899.893 323.2C899.764 322.432 914.474 278.116 914.474 278.116C914.474 278.116 930.586 218.559 891.142 218.831Z" fill="#D0CDE1"/>
<path id="Vector_23" d="M857.243 192.267C856.285 189.22 854.214 186.657 852.886 183.752C851.838 181.425 851.271 178.909 851.22 176.357C851.169 173.805 851.635 171.269 852.59 168.902C855.889 160.849 864.22 156.135 869.413 149.151C870.048 152.16 872.583 154.399 875.233 155.96C877.883 157.52 880.813 158.656 883.167 160.635C885.465 162.755 887.31 165.317 888.592 168.168C890.381 171.421 891.535 174.984 891.992 178.668C892.209 180.511 892.049 182.379 891.521 184.158C890.994 185.937 890.11 187.59 888.925 189.017C886.924 191.223 883.878 192.802 883.219 195.706C883.008 197.137 883.122 198.598 883.553 199.979C885.492 208.344 887.423 216.865 886.808 225.431C886.193 233.996 882.645 242.764 875.612 247.69C881.967 247.087 888.453 246.45 894.282 243.846C900.111 241.242 905.272 236.276 906.381 229.989C906.928 226.888 906.482 223.614 907.498 220.633C910.069 213.088 920.308 211.053 924.358 204.187C925.979 201.44 926.439 198.171 926.653 194.989C927.912 176.261 921.716 157.633 912.321 141.383C909.083 135.782 905.289 130.232 899.783 126.835C895.097 123.944 889.547 122.848 884.103 122.029C876.158 120.834 868.059 120.12 860.096 121.184C856.621 121.557 853.239 122.536 850.102 124.077C847.04 125.799 844.295 128.034 841.988 130.684C831.194 142.411 825.324 159.252 829.065 174.746C831.329 184.12 836.849 192.428 843.349 199.554C845.622 202.046 850.885 207.29 854.558 204.871C857.889 202.676 858.278 195.558 857.243 192.267Z" fill="#2F2E41"/>
</g>
<g id="boy">
<path id="Vector_24" d="M127.123 263.694C145.457 260.631 158.383 246.555 155.993 232.254C153.604 217.954 136.804 208.844 118.47 211.907C100.136 214.971 87.2106 229.047 89.5999 243.347C91.9893 257.648 108.789 266.757 127.123 263.694Z" fill="#2F2E41"/>
<path id="Vector_25" d="M158.225 415.124C158.225 415.124 188.435 412.124 193.081 407.253C197.726 402.382 221.853 407.906 224.733 412.884C227.612 417.863 193.862 424.184 188.551 425.072C183.239 425.959 159.341 438.142 159.341 438.142L158.225 415.124Z" fill="#A0616A"/>
<path id="Vector_26" d="M148.376 734.678C148.376 734.678 140.319 772.117 148.291 775.141C156.264 778.165 232.037 762.394 232.037 762.394C232.037 762.394 243.435 752.4 227.996 749.379C227.996 749.379 215.787 750.796 207.108 747.268C198.428 743.74 187.83 736.176 187.83 736.176C187.83 736.176 185 722.959 180.662 726.795C179.373 727.992 178.348 729.445 177.654 731.061C176.959 732.678 176.61 734.421 176.63 736.181L148.376 734.678Z" fill="#2F2E41"/>
<path id="Vector_27" opacity="0.1" d="M148.376 734.678C148.376 734.678 140.319 772.117 148.291 775.141C156.264 778.165 232.037 762.394 232.037 762.394C232.037 762.394 243.435 752.4 227.996 749.379C227.996 749.379 215.787 750.796 207.108 747.268C198.428 743.74 187.83 736.176 187.83 736.176C187.83 736.176 185 722.959 180.662 726.795C179.373 727.992 178.348 729.445 177.654 731.061C176.959 732.678 176.61 734.421 176.63 736.181L148.376 734.678Z" fill="black"/>
<path id="Vector_28" d="M343.965 480.223L230.645 399.697L311.533 286.722L277.016 262.175L171.564 409.568L319.302 514.658L343.965 480.223Z" fill="#FFB31A"/>
<path id="Vector_29" d="M128.701 749.007C128.701 749.007 119.865 790.067 128.608 793.383C137.352 796.7 220.453 779.403 220.453 779.403C220.453 779.403 232.954 768.442 216.021 765.129C216.021 765.129 202.631 766.684 193.113 762.814C183.594 758.945 171.971 750.65 171.971 750.65C171.971 750.65 168.867 736.154 164.11 740.361C162.696 741.674 161.572 743.267 160.81 745.04C160.049 746.813 159.666 748.725 159.688 750.655L128.701 749.007Z" fill="#2F2E41"/>
<path id="Vector_30" d="M166.223 491.589L170.905 576.798C170.905 576.798 174.242 617.189 165.725 627.484C165.725 627.484 167.832 640.099 165.178 644.637L169.294 697.864C169.294 697.864 179.15 716.009 179.041 719.44C178.932 722.87 184.026 732.939 183.584 734.378C183.142 735.816 151.715 739.702 151.715 739.702L140.495 631.699L136.229 479.539L166.223 491.589Z" fill="#2F2E41"/>
<path id="Vector_31" opacity="0.1" d="M166.223 491.589L170.905 576.798C170.905 576.798 174.242 617.189 165.725 627.484C165.725 627.484 167.832 640.099 165.178 644.637L169.294 697.864C169.294 697.864 179.15 716.009 179.041 719.44C178.932 722.87 184.026 732.939 183.584 734.378C183.142 735.816 151.715 739.702 151.715 739.702L140.495 631.699L136.229 479.539L166.223 491.589Z" fill="black"/>
<path id="Vector_32" d="M149.181 491.707C149.181 491.707 153.304 561.312 152.425 576.474C151.944 586.441 152.244 596.431 153.322 606.352C153.322 606.352 156.208 627.709 151.231 634.683C149.772 636.706 148.744 639.008 148.212 641.445C147.68 643.882 147.655 646.402 148.138 648.849C148.138 648.849 153.366 716.905 158.017 724.317C162.668 731.73 167.097 737.815 164.665 743.681C162.232 749.547 125.716 755.648 125.05 751.664C124.385 747.681 123.83 744.361 121.506 742.702C119.181 741.043 119.065 728.096 119.065 728.096C119.065 728.096 101.225 670.337 105.644 651.854C110.063 633.372 105.507 585.678 105.507 585.678C105.507 585.678 91.2102 532.786 83.1288 525.264C75.0473 517.743 77.9118 485.87 77.9118 485.87L149.181 491.707Z" fill="#2F2E41"/>
<path id="Vector_33" d="M95.0068 282.464C96.0725 284.094 98.0835 284.764 99.9202 285.41C110.565 289.151 120.026 295.574 129.351 301.927C126.209 295.464 125.419 288.109 127.118 281.126C127.706 278.743 128.565 276.144 127.491 273.937C126.701 272.314 125.041 271.325 123.451 270.471C119.747 268.482 115.928 266.716 112.013 265.182C109.279 264.11 103.506 261.004 100.726 261.912C101.22 265.791 101.717 269.25 100.631 273.135C100.374 274.056 95.4142 283.087 95.0068 282.464Z" fill="#A0616A"/>
<path id="Vector_34" d="M130.396 285.328C145.43 282.816 155.581 268.592 153.069 253.558C150.558 238.524 136.334 228.373 121.3 230.885C106.266 233.397 96.1149 247.62 98.6267 262.654C101.139 277.688 115.362 287.839 130.396 285.328Z" fill="#A0616A"/>
<path id="Vector_35" d="M137.936 322.286C137.936 322.286 138.701 298.272 124.091 292.523C109.481 286.775 92.6579 280.031 92.6579 280.031C92.6579 280.031 87.8994 280.144 87.5716 290.435C87.5716 290.435 50.9475 304.062 52.9542 340.58C54.9608 377.098 70.3636 428.439 70.3636 428.439C70.3636 428.439 72.0423 475.249 68.8435 501.035C68.8435 501.035 63.7555 507.345 88.9817 494.94C114.208 482.536 165.786 505.312 165.786 505.312C165.786 505.312 169.657 499.888 169.103 496.568C168.548 493.248 170.642 473.107 170.642 473.107C170.642 473.107 161.646 390.666 162.084 381.039C162.523 371.411 144.133 322.616 137.936 322.286Z" fill="#575A89"/>
<path id="Vector_36" d="M119.901 261.982C121.385 260.803 123.137 260.008 125.002 259.669C126.869 259.328 128.606 258.478 130.021 257.213C132.262 254.809 131.813 250.962 133.253 248.008C135.338 243.731 140.694 242.363 145.416 241.771C148.303 241.408 151.421 241.063 153.577 239.109C155.79 237.102 156.413 233.913 156.777 230.948C157.207 227.441 157.164 223.247 154.3 221.178C152.311 219.741 149.569 219.85 147.426 218.654C145.205 217.414 143.972 214.999 142.527 212.905C140.853 210.339 138.534 208.258 135.804 206.869C131.824 204.987 127.178 205.193 122.845 205.965C118.511 206.736 114.247 208.035 109.85 208.223C106.247 208.376 102.531 207.79 99.0992 208.898C94.7264 210.31 91.5822 214.313 90.0342 218.639C88.4861 222.966 88.2929 227.642 88.1152 232.234L87.632 244.722C87.4821 248.596 87.3457 252.569 88.5752 256.245C91.1239 263.866 99.0864 268.931 100.885 276.763C100.975 274.503 101.624 272.3 102.775 270.352C103.926 268.404 105.542 266.772 107.479 265.603C107.957 265.262 108.536 265.092 109.122 265.12C109.846 265.225 110.363 265.845 110.894 266.349C112.284 267.671 116.24 269.368 118.086 267.957C119.737 266.695 117.881 263.908 119.901 261.982Z" fill="#2F2E41"/>
<path id="Vector_37" d="M72.0111 397.453C72.0111 397.453 72.2444 427.443 91.0548 421.57C91.0548 421.57 100.792 418.578 102.342 419.684C103.891 420.79 151.581 403.95 157 395.538C157 395.538 164.523 391.551 169.172 394.869C173.821 398.187 214.323 395.514 200.376 385.56C186.428 375.606 167.394 376.057 167.394 376.057L142.386 381.6C142.386 381.6 129.773 387.802 121.141 385.15C112.508 382.497 90.1559 387.597 90.1559 387.597L72.0111 397.453Z" fill="#A0616A"/>
<path id="Vector_38" d="M83.8131 300.618C83.8131 300.618 54.4907 308.929 61.7012 352.085L70.9084 407.192C70.9084 407.192 86.2865 397.115 89.7171 397.224C93.1477 397.334 104.873 385.82 104.873 385.82C104.873 385.82 114.154 347.416 111.162 337.679C108.17 327.942 103.953 298.618 83.8131 300.618Z" fill="#575A89"/>
<path id="Vector_39" d="M125.238 254.455C139.355 252.096 149.806 244.239 148.581 236.905C147.356 229.571 134.918 225.539 120.801 227.897C106.684 230.256 96.2326 238.113 97.4579 245.447C98.6832 252.78 111.121 256.813 125.238 254.455Z" fill="#2F2E41"/>
<path id="Vector_40" d="M103.222 289.735C108.172 288.908 110.521 278.279 108.469 265.996C106.417 253.712 100.74 244.424 95.7898 245.251C90.8396 246.078 88.4905 256.707 90.5428 268.991C92.5952 281.275 98.2719 290.562 103.222 289.735Z" fill="#2F2E41"/>
</g>
<g id="dukuduku">
<path id="Vector_41" opacity="0.1" d="M385.707 401.163L425.16 394.571L418.568 355.118L379.115 361.71L385.707 401.163ZM577.169 328.619L537.716 335.211L544.308 374.664L583.761 368.072L577.169 328.619ZM465.007 387.913L504.461 381.322L497.869 341.868L458.416 348.46L465.007 387.913Z" fill="black"/>
<path id="Vector_42" d="M391.474 390.777L430.927 384.185L424.335 344.732L384.882 351.324L391.474 390.777ZM582.937 318.233L543.484 324.825L550.075 364.278L589.529 357.686L582.937 318.233ZM470.775 377.527L510.228 370.935L503.636 331.482L464.183 338.074L470.775 377.527Z" fill="#FFB31A"/>
</g>
</g>
<defs>
<filter id="filter0_d" x="0" y="0" width="1096" height="834.294" filterUnits="userSpaceOnUse" color-interpolation-filters="sRGB">
<feFlood flood-opacity="0" result="BackgroundImageFix"/>
<feColorMatrix in="SourceAlpha" type="matrix" values="0 0 0 0 0 0 0 0 0 0 0 0 0 0 0 0 0 0 127 0"/>
<feOffset dy="4"/>
<feGaussianBlur stdDeviation="2"/>
<feColorMatrix type="matrix" values="0 0 0 0 0 0 0 0 0 0 0 0 0 0 0 0 0 0 0.25 0"/>
<feBlend mode="normal" in2="BackgroundImageFix" result="effect1_dropShadow"/>
<feBlend mode="normal" in="SourceGraphic" in2="effect1_dropShadow" result="shape"/>
</filter>
<clipPath id="clip0">
<rect width="1088" height="826.294" fill="white" transform="translate(4)"/>
</clipPath>
</defs>
</svg>
